<svg width="1200pt" height="1200pt" version="1.1" viewBox="0 0 1200 1200" xmlns="http://www.w3.org/2000/svg">
  <path d="m876.61 274.92c-182.63-25.312-370.45-25.312-553.22 0-75.375 10.453-134.06 67.781-145.92 142.78-9.6094 60.141-14.391 121.45-14.391 182.39 0 60.938 4.9219 122.86 14.531 183.37 11.625 73.219 71.625 131.39 145.69 141.71 91.312 12.703 184.45 19.078 276.61 19.078 92.156 0 185.29-6.375 276.61-19.078 75.234-10.453 133.78-67.312 145.69-141.71 9.6094-60.469 14.531-122.16 14.531-183.37 0-61.219-4.9219-122.86-14.531-183.37-11.625-73.219-71.625-131.39-145.69-141.71zm98.25 500.86c-8.5312 53.297-50.625 94.219-104.86 101.77-178.31 24.703-361.69 24.703-540 0-53.391-7.4531-96.469-49.219-104.86-101.77-9.2344-57.938-13.922-117.14-13.922-175.78 0-58.688 4.6875-117.23 13.781-174.84 8.5312-53.859 50.766-95.156 105.14-102.7 89.156-12.375 180-18.609 270-18.609s180.84 6.2344 270 18.609c53.391 7.4531 96.469 49.219 104.86 101.77 9.2344 57.938 13.922 117.14 13.922 175.78 0 58.688-4.6875 117.84-13.922 175.78z" />
  <path d="m756.24 579.24-250.08-144.37c-7.4531-4.3125-16.547-4.3125-24 0s-12 12.234-12 20.766v288.71c0 8.5312 4.5469 16.547 12 20.766 3.7031 2.1562 7.7812 3.2344 12 3.2344s8.2969-1.0781 12-3.2344l250.08-144.37c7.4531-4.3125 12-12.234 12-20.766s-4.5469-16.547-12-20.766zm-238.08 123.61v-205.69l178.08 102.84z" />
</svg>
