<svg width="1200pt" height="1200pt" version="1.1" viewBox="0 0 1200 1200" xmlns="http://www.w3.org/2000/svg">
  <path d="m496.4 1032 199-199c43.801-44 68-102.2 68-164.2s-24.199-120.2-68-164.2c-22.199-22.199-48.199-39-77-50.602l-13.398 13.398c-17 17-26.199 39.602-26.199 63.801 0 5.8008 0.60156 11.602 1.6016 17.199 16 6.6016 30.801 16 43 28.398 50.801 50.602 50.801 133.4 0 184l-199.2 199.2c-24.398 24.602-57.199 38.199-92 38.199s-67.602-13.602-92-38.199c-24.602-24.602-38.199-57.199-38.199-92.199 0-34.801 13.602-67.398 38.199-92l102.6-102.6-24.199-119.8-150.6 150.4c-90.398 90.398-90.398 237.8 0 328.2 90.398 90.602 237.8 90.602 328.4 0z" />
  <path d="m857.6 526.8 24 120 150.6-150.6c90.398-90.398 90.398-237.8 0-328.2-90.602-90.602-237.8-90.398-328.4 0l-199 199c-43.801 44-68 102.2-68 164.2s24.199 120.4 68 164.2c22.199 22.199 48.199 39 77 50.602l13.398-13.398c21.801-22 30.199-52.602 24.602-81-16-6.3984-30.801-16-43-28.199-24.602-24.602-38-57.398-38-92.199s13.398-67.602 38-92l199-199.2c24.398-24.602 57.199-38 92-38s67.602 13.398 92 38c24.602 24.602 38.199 57.398 38.199 92.199s-13.602 67.398-38.199 92z" />
</svg>
